# xmcd
#
# Track frame offsets:
#	150
#	12890
#	24070
#	34661
#	47357
#	55994
#	67764
#	78141
#	88437
#	99867
#	109375
#	119003
#	131175
#	139715
#	148473
#	159628
#	171221
#	182841
#	195682
#	209850
#	223852
#
# Disc length: 3236 seconds
#
# Revision: 1
# Processed by: cddbd v1.5.2PL0 Copyright (c) Steve Scherf et al.
# Submitted via: EZCDAudioConverter 7.1.0.1
#
DISCID=370ca215
DTITLE=TATI QUEBRA BARRACO - TOCA TUDOOOOOO! [CD PIP 035-2) PIPO'S RECORDS
DYEAR=2001
DGENRE=FUNK
TTITLE0=MONTAGEM - CARTÃO MAGNETICO (BY GILMAR SINISTRO)
TTITLE1=MONTAGEM - BARRACO 3 (BY GILMAR SINISTRO)
TTITLE2=MONTAGEM - CARDAPIO DO AMOR (BY GILMAR SINISTRO)
TTITLE3=MONTAGEM - DESAFIO (PART. ESP. MR. CATRA) (BY GILMAR SINISTRO)
TTITLE4=MONTAGEM - NÃO SOU COCOTÁ (BY GILMAR SINISTRO)
TTITLE5=MONTAGEM - COMIGO NINGUÉM PODE (BY GILMAR SINISTRO)
TTITLE6=MONTAGEM - BOTA NA TCHECA (BY GILMAR SINISTRO)
TTITLE7=MONTAGEM - NA PRESSÃO (BY GILMAR SINISTRO)
TTITLE8=MONTAGEM - ASSADINHA (69) (BY GILMAR SINISTRO)
TTITLE9=MONTAGEM - FALTA MUITO PRA ACABAR (BY GILMAR SINISTRO)
TTITLE10=MONTAGEM - QUEBRA BARRACO 1 (BY GILMAR SINISTRO)
TTITLE11=MONTAGEM - QUEBRA BARRACO 2 (BY GILMAR SINISTRO)
TTITLE12=MONTAGEM - CACHORRA CHAPA QUENTE (BY GILMAR SINISTRO)
TTITLE13=MONTAGEM - MARRA DE SANSÃO (BY GILMAR SINISTRO)
TTITLE14=MONTAGEM - PALMOLÃO (BY GILMAR SINISTRO)
TTITLE15=MONTAGEM - PIDONA (BY GILMAR SINISTRO)
TTITLE16=MONTAGEM - TCHUTCHUCO (BY GILMAR SINISTRO)
TTITLE17=MONTAGEM - SOCA TCHECA (BY GILMAR SINISTRO)
TTITLE18=MONTAGEM - MEGA MIX TATI (BY GILMAR SINISTRO)
TTITLE19=PIDONA TECHNO (BY GILMAR SINISTRO)
TTITLE20=TCHUTCHUCOTECHNO (BY GILMAR SINISTRO)
EXTD=
EXTT0=
EXTT1=
EXTT2=
EXTT3=
EXTT4=
EXTT5=
EXTT6=
EXTT7=
EXTT8=
EXTT9=
EXTT10=
EXTT11=
EXTT12=
EXTT13=
EXTT14=
EXTT15=
EXTT16=
EXTT17=
EXTT18=
EXTT19=
EXTT20=
PLAYORDER=
